<svg xmlns="http://www.w3.org/2000/svg" width="205.846" height="61" viewBox="0 0 205.846 61">
  <g id="Groupe_55" data-name="Groupe 55" transform="translate(-60.082 -123)">
    <text id="ToolEdit" transform="translate(103.928 168)" fill="#4a4d52" font-size="45" font-family="Nunito-Regular, Nunito"><tspan x="0" y="0">ToolEdit</tspan></text>
    <path id="Tracé_98" data-name="Tracé 98" d="M-1434.7,588.175c-.067-.568-.66-1.255-1.737-2.018s-.433-2.347-.716-3.262c-.235-.754-.51-1.588-.84-2.493-4.951-6.208-13.469-7.655-15.779-11.4-.858-1.393,1.157-5.924,1.157-5.924s-1.875,2.575-1.915,4.577c-.219-.178-1.157-1.328-2.175-2.4s-.661-3.5-.661-3.5a4.648,4.648,0,0,0-.476,2.256,9.743,9.743,0,0,1-2.3-2.184c-.943-1.443,1.512-5.785,1.576-5.9a10.408,10.408,0,0,0-2.332,4.634,4.466,4.466,0,0,1-2.215-2.318c-.828-1.705,2.043-6.5,2.106-6.61a9.021,9.021,0,0,0-2.738,5.626A12.851,12.851,0,0,1-1466,547.4a5.19,5.19,0,0,1,.17-.672,138.209,138.209,0,0,1,20.3,18.652A104.04,104.04,0,0,0-1465,545.473a2.818,2.818,0,0,1,1.819-.553c4.224-.006,9.63,2.378,11.989,4.228a2.792,2.792,0,0,0-2.339,1.248c.805-.641,2.867-1.909,5.088.822a5.742,5.742,0,0,0-2.842,1.823c.1-.086,1.961-1.593,3.214-1.279a2.638,2.638,0,0,0-1.435.752,2.782,2.782,0,0,1,2.027-.129c1.705.919,6.417,6.774,8.373,10.809-.516.007-1.38.911-1.434.969.078-.041,1.714-.84,3.329,1.963,1,1.741,1.551,6.632.182,13.117.454,1.149.843,2.154,1.214,3,.453,1.026,1.231,1.733,1.418,2.991C-1434.285,585.975-1434.616,588.9-1434.7,588.175Z" transform="translate(1526.302 -413.104)" fill="#4a4d52"/>
  </g>
</svg>
